<?xml version="1.0" encoding="us-ascii" standalone="no"?><svg xmlns="http://www.w3.org/2000/svg" xmlns:xlink="http://www.w3.org/1999/xlink" contentStyleType="text/css" height="594px" preserveAspectRatio="none" style="width:473px;height:594px;background:#FFFFFF;" version="1.1" viewBox="0 0 473 594" width="473px" zoomAndPan="magnify"><defs/><g><!--entity entry_point--><g id="elem_entry_point"><polygon fill="#F1F1F1" points="167,16,177,6,288,6,288,42.2969,278,52.2969,167,52.2969,167,16" style="stroke:#181818;stroke-width:0.5;"/><line style="stroke:#181818;stroke-width:0.5;" x1="278" x2="288" y1="16" y2="6"/><line style="stroke:#181818;stroke-width:0.5;" x1="167" x2="278" y1="16" y2="16"/><line style="stroke:#181818;stroke-width:0.5;" x1="278" x2="278" y1="16" y2="52.2969"/><text fill="#000000" font-family="sans-serif" font-size="14" lengthAdjust="spacing" textLength="81" x="182" y="38.9951">Entry Point</text></g><!--entity tiff_sequential--><g id="elem_tiff_sequential"><polygon fill="#F1F1F1" points="16,139,26,129,225,129,225,181.5938,215,191.5938,16,191.5938,16,139" style="stroke:#181818;stroke-width:0.5;"/><line style="stroke:#181818;stroke-width:0.5;" x1="215" x2="225" y1="139" y2="129"/><line style="stroke:#181818;stroke-width:0.5;" x1="16" x2="215" y1="139" y2="139"/><line style="stroke:#181818;stroke-width:0.5;" x1="215" x2="215" y1="139" y2="191.5938"/><text fill="#000000" font-family="sans-serif" font-size="14" lengthAdjust="spacing" textLength="84" x="31" y="161.9951">TIFF Images</text><text fill="#000000" font-family="sans-serif" font-size="14" lengthAdjust="spacing" textLength="169" x="31" y="178.292">(Sequence in Directory)</text></g><!--entity tiff_stacked--><g id="elem_tiff_stacked"><polygon fill="#F1F1F1" points="267.5,139,277.5,129,399.5,129,399.5,181.5938,389.5,191.5938,267.5,191.5938,267.5,139" style="stroke:#181818;stroke-width:0.5;"/><line style="stroke:#181818;stroke-width:0.5;" x1="389.5" x2="399.5" y1="139" y2="129"/><line style="stroke:#181818;stroke-width:0.5;" x1="267.5" x2="389.5" y1="139" y2="139"/><line style="stroke:#181818;stroke-width:0.5;" x1="389.5" x2="389.5" y1="139" y2="191.5938"/><text fill="#000000" font-family="sans-serif" font-size="14" lengthAdjust="spacing" textLength="92" x="282.5" y="161.9951">Stacked TIFF</text><text fill="#000000" font-family="sans-serif" font-size="14" lengthAdjust="spacing" textLength="83" x="282.5" y="178.292">(Single File)</text></g><!--entity point_cloud--><g id="elem_point_cloud"><polygon fill="#F1F1F1" points="172.5,279,182.5,269,294.5,269,294.5,305.2969,284.5,315.2969,172.5,315.2969,172.5,279" style="stroke:#181818;stroke-width:0.5;"/><line style="stroke:#181818;stroke-width:0.5;" x1="284.5" x2="294.5" y1="279" y2="269"/><line style="stroke:#181818;stroke-width:0.5;" x1="172.5" x2="284.5" y1="279" y2="279"/><line style="stroke:#181818;stroke-width:0.5;" x1="284.5" x2="284.5" y1="279" y2="315.2969"/><text fill="#000000" font-family="sans-serif" font-size="14" lengthAdjust="spacing" textLength="82" x="187.5" y="301.9951">Point Cloud</text></g><!--entity file--><g id="elem_file"><polygon fill="#F1F1F1" points="65,408,75,398,130,398,130,434.2969,120,444.2969,65,444.2969,65,408" style="stroke:#181818;stroke-width:0.5;"/><line style="stroke:#181818;stroke-width:0.5;" x1="120" x2="130" y1="408" y2="398"/><line style="stroke:#181818;stroke-width:0.5;" x1="65" x2="120" y1="408" y2="408"/><line style="stroke:#181818;stroke-width:0.5;" x1="120" x2="120" y1="408" y2="444.2969"/><text fill="#000000" font-family="sans-serif" font-size="14" lengthAdjust="spacing" textLength="25" x="80" y="430.9951">File</text></g><!--entity window--><g id="elem_window"><polygon fill="#F1F1F1" points="194.5,408,204.5,398,290.5,398,290.5,434.2969,280.5,444.2969,194.5,444.2969,194.5,408" style="stroke:#181818;stroke-width:0.5;"/><line style="stroke:#181818;stroke-width:0.5;" x1="280.5" x2="290.5" y1="408" y2="398"/><line style="stroke:#181818;stroke-width:0.5;" x1="194.5" x2="280.5" y1="408" y2="408"/><line style="stroke:#181818;stroke-width:0.5;" x1="280.5" x2="280.5" y1="408" y2="444.2969"/><text fill="#000000" font-family="sans-serif" font-size="14" lengthAdjust="spacing" textLength="56" x="209.5" y="430.9951">Window</text></g><!--entity OpenCV2,NumPy--><g id="elem_OpenCV2,NumPy"><ellipse cx="393.5" cy="421" fill="#F1F1F1" rx="8" ry="8" style="stroke:#181818;stroke-width:0.5;"/><text fill="#000000" font-family="sans-serif" font-size="14" lengthAdjust="spacing" textLength="120" x="333.5" y="450.9951">OpenCV2,NumPy</text></g><!--entity taichi--><g id="elem_taichi"><ellipse cx="242.5" cy="556" fill="#F1F1F1" rx="8" ry="8" style="stroke:#181818;stroke-width:0.5;"/><text fill="#000000" font-family="sans-serif" font-size="14" lengthAdjust="spacing" textLength="40" x="222.5" y="585.9951">taichi</text></g><!--entity plyfile--><g id="elem_plyfile"><ellipse cx="97.5" cy="556" fill="#F1F1F1" rx="8" ry="8" style="stroke:#181818;stroke-width:0.5;"/><text fill="#000000" font-family="sans-serif" font-size="14" lengthAdjust="spacing" textLength="45" x="75" y="585.9951">plyfile</text></g><!--link entry_point to tiff_sequential--><g id="link_entry_point_tiff_sequential"><path d="M166.984,42.397 C145.396,50.049 123.279,62.337 110.5,82 C102.5992,94.157 103.0382,109.671 106.2306,123.62 " fill="none" id="entry_point-to-tiff_sequential" style="stroke:#181818;stroke-width:1.0;"/><polygon fill="#181818" points="107.5209,128.679,109.1726,118.9696,106.2852,123.8341,101.4207,120.9467,107.5209,128.679" style="stroke:#181818;stroke-width:1.0;"/><text fill="#000000" font-family="sans-serif" font-size="13" lengthAdjust="spacing" textLength="178" x="111.5" y="95.0669">Process Multiple Tiff Images</text></g><!--link entry_point to tiff_stacked--><g id="link_entry_point_tiff_stacked"><path d="M265.208,52.197 C276.967,60.448 289.261,70.608 298.5,82 C308.526,94.362 316.315,110.057 321.973,124.086 " fill="none" id="entry_point-to-tiff_stacked" style="stroke:#181818;stroke-width:1.0;"/><polygon fill="#181818" points="323.81,128.772,324.2472,118.9329,321.9841,124.1173,316.7997,121.8542,323.81,128.772" style="stroke:#181818;stroke-width:1.0;"/><text fill="#000000" font-family="sans-serif" font-size="13" lengthAdjust="spacing" textLength="155" x="310.5" y="95.0669">Process Stacked Tiff File</text></g><!--link tiff_sequential to point_cloud--><g id="link_tiff_sequential_point_cloud"><path d="M125.581,192.267 C129.333,207.579 135.731,225.625 146.5,239 C155.149,249.742 166.657,258.781 178.462,266.152 " fill="none" id="tiff_sequential-to-point_cloud" style="stroke:#181818;stroke-width:1.0;"/><polygon fill="#181818" points="182.82,268.792,177.1946,260.7078,178.5434,266.2015,173.0497,267.5503,182.82,268.792" style="stroke:#181818;stroke-width:1.0;"/><text fill="#000000" font-family="sans-serif" font-size="13" lengthAdjust="spacing" textLength="119" x="147.5" y="235.0669">Create Point Cloud</text></g><!--link tiff_stacked to point_cloud--><g id="link_tiff_stacked_point_cloud"><path d="M310.894,192.248 C300.273,206.555 287.364,223.743 275.5,239 C268.888,247.502 261.55,256.675 254.881,264.914 " fill="none" id="tiff_stacked-to-point_cloud" style="stroke:#181818;stroke-width:1.0;"/><polygon fill="#181818" points="251.668,268.876,260.4435,264.4048,254.8172,264.9924,254.2297,259.3661,251.668,268.876" style="stroke:#181818;stroke-width:1.0;"/><text fill="#000000" font-family="sans-serif" font-size="13" lengthAdjust="spacing" textLength="119" x="289.5" y="235.0669">Create Point Cloud</text></g><!--link point_cloud to file--><g id="link_point_cloud_file"><path d="M172.361,294.685 C135.006,299.272 89.8694,311.947 65.5,345 C54.6727,359.685 62.8581,378.594 73.6567,393.751 " fill="none" id="point_cloud-to-file" style="stroke:#181818;stroke-width:1.0;"/><polygon fill="#181818" points="76.7581,397.92,74.5956,388.3115,73.7737,393.9083,68.1769,393.0865,76.7581,397.92" style="stroke:#181818;stroke-width:1.0;"/><text fill="#000000" font-family="sans-serif" font-size="13" lengthAdjust="spacing" textLength="74" x="66.5" y="358.0669">Save as file</text></g><!--link file to point_cloud--><g id="link_file_point_cloud"><path d="M120.926,397.983 C136.859,383.021 158.43,362.793 177.5,345 C186.667,336.447 196.697,327.123 205.704,318.762 " fill="none" id="file-to-point_cloud" style="stroke:#181818;stroke-width:1.0;"/><polygon fill="#181818" points="209.496,315.243,200.1779,318.4325,205.8308,318.6439,205.6194,324.2968,209.496,315.243" style="stroke:#181818;stroke-width:1.0;"/><text fill="#000000" font-family="sans-serif" font-size="13" lengthAdjust="spacing" textLength="56" x="178.5" y="358.0669">Read file</text></g><!--link point_cloud to window--><g id="link_point_cloud_window"><path d="M238.718,315.134 C240.631,324.317 242.558,335.116 243.5,345 C245.007,360.817 244.85,378.594 244.274,392.87 " fill="none" id="point_cloud-to-window" style="stroke:#181818;stroke-width:1.0;"/><polygon fill="#181818" points="244.044,397.961,248.4461,389.1507,244.2697,392.9661,240.4543,388.7896,244.044,397.961" style="stroke:#181818;stroke-width:1.0;"/><text fill="#000000" font-family="sans-serif" font-size="13" lengthAdjust="spacing" textLength="46" x="246.5" y="358.0669">Render</text></g><!--link point_cloud to OpenCV2,NumPy--><g id="link_point_cloud_OpenCV2,NumPy"><path d="M262.773,315.07 C274.832,324.244 288.903,335.053 301.5,345 C332.228,369.265 368.022,398.825 384.435,412.454 " fill="none" id="point_cloud-OpenCV2,NumPy" style="stroke:#181818;stroke-width:1.0;stroke-dasharray:7.0,7.0;"/></g><!--link window to taichi--><g id="link_window_taichi"><path d="M242.5,444.261 C242.5,472.075 242.5,518.7857 242.5,541.619 " fill="none" id="window-to-taichi" style="stroke:#181818;stroke-width:1.0;"/><polygon fill="#181818" points="242.5,546.8836,246.5,537.8836,242.5,541.8836,238.5,537.8836,242.5,546.8836" style="stroke:#181818;stroke-width:1.0;"/><text fill="#000000" font-family="sans-serif" font-size="13" lengthAdjust="spacing" textLength="37" x="243.5" y="493.0669">Taichi</text></g><!--link file to plyfile--><g id="link_file_plyfile"><path d="M97.5,444.261 C97.5,472.075 97.5,518.7857 97.5,541.619 " fill="none" id="file-to-plyfile" style="stroke:#181818;stroke-width:1.0;"/><polygon fill="#181818" points="97.5,546.8836,101.5,537.8836,97.5,541.8836,93.5,537.8836,97.5,546.8836" style="stroke:#181818;stroke-width:1.0;"/><text fill="#000000" font-family="sans-serif" font-size="13" lengthAdjust="spacing" textLength="38" x="98.5" y="493.0669">plyfile</text></g><!--SRC=[ZP11JyGW48Nl_8f9Jvgu7ZpsuAMwoHxKPjlenQGXC5s9B5HAtVJVMmQoOes99sRWVOytOwn4AEwDTpFKLXbV01y1GzyDeMU65ErkkuNTaHzmV3KN3NvCQ0I2Cd2d70fltNn9g5TztutqxXNN2Myy5-ye8TW4Nfc3HjWgZJaLHGcXD51fEqcIK9fEX3uf0avF_LAaknTbf3tHxObAnh9XOBEvNISieNPMu3Z2mwIz6fPSxQ98m_v1nwJVw7c-G8PSZAs-8JYReOJA8VS8sPmiD_yNm3810M4L9JJy4y-BMKlYNahOev7e60kYtv_jaSl8_pIuXk9fG5CztrmzJiTwBXYBXd4xN8atLK9BPsQjvvWi5Ly0]--></g></svg>