<?xml version="1.0" encoding="us-ascii" standalone="no"?><svg xmlns="http://www.w3.org/2000/svg" xmlns:xlink="http://www.w3.org/1999/xlink" contentStyleType="text/css" height="594px" preserveAspectRatio="none" style="width:473px;height:594px;background:#FFFFFF;" version="1.1" viewBox="0 0 473 594" width="473px" zoomAndPan="magnify"><defs/><g><!--entity entry_point--><g id="elem_entry_point"><polygon fill="#F1F1F1" points="167,16,177,6,288,6,288,42.2969,278,52.2969,167,52.2969,167,16" style="stroke:#181818;stroke-width:0.5;"/><line style="stroke:#181818;stroke-width:0.5;" x1="278" x2="288" y1="16" y2="6"/><line style="stroke:#181818;stroke-width:0.5;" x1="167" x2="278" y1="16" y2="16"/><line style="stroke:#181818;stroke-width:0.5;" x1="278" x2="278" y1="16" y2="52.2969"/><text fill="#000000" font-family="sans-serif" font-size="14" lengthAdjust="spacing" textLength="81" x="182" y="38.9951">Entry Point</text></g><!--entity tiff_sequential--><g id="elem_tiff_sequential"><polygon fill="#F1F1F1" points="16,139,26,129,225,129,225,181.5938,215,191.5938,16,191.5938,16,139" style="stroke:#181818;stroke-width:0.5;"/><line style="stroke:#181818;stroke-width:0.5;" x1="215" x2="225" y1="139" y2="129"/><line style="stroke:#181818;stroke-width:0.5;" x1="16" x2="215" y1="139" y2="139"/><line style="stroke:#181818;stroke-width:0.5;" x1="215" x2="215" y1="139" y2="191.5938"/><text fill="#000000" font-family="sans-serif" font-size="14" lengthAdjust="spacing" textLength="84" x="31" y="161.9951">TIFF Images</text><text fill="#000000" font-family="sans-serif" font-size="14" lengthAdjust="spacing" textLength="169" x="31" y="178.292">(Sequence in Directory)</text></g><!--entity tiff_stacked--><g id="elem_tiff_stacked"><polygon fill="#F1F1F1" points="267.5,139,277.5,129,399.5,129,399.5,181.5938,389.5,191.5938,267.5,191.5938,267.5,139" style="stroke:#181818;stroke-width:0.5;"/><line style="stroke:#181818;stroke-width:0.5;" x1="389.5" x2="399.5" y1="139" y2="129"/><line style="stroke:#181818;stroke-width:0.5;" x1="267.5" x2="389.5" y1="139" y2="139"/><line style="stroke:#181818;stroke-width:0.5;" x1="389.5" x2="389.5" y1="139" y2="191.5938"/><text fill="#000000" font-family="sans-serif" font-size="14" lengthAdjust="spacing" textLength="92" x="282.5" y="161.9951">Stacked TIFF</text><text fill="#000000" font-family="sans-serif" font-size="14" lengthAdjust="spacing" textLength="83" x="282.5" y="178.292">(Single File)</text></g><!--entity point_cloud--><g id="elem_point_cloud"><polygon fill="#F1F1F1" points="172.5,279,182.5,269,294.5,269,294.5,305.2969,284.5,315.2969,172.5,315.2969,172.5,279" style="stroke:#181818;stroke-width:0.5;"/><line style="stroke:#181818;stroke-width:0.5;" x1="284.5" x2="294.5" y1="279" y2="269"/><line style="stroke:#181818;stroke-width:0.5;" x1="172.5" x2="284.5" y1="279" y2="279"/><line style="stroke:#181818;stroke-width:0.5;" x1="284.5" x2="284.5" y1="279" y2="315.2969"/><text fill="#000000" font-family="sans-serif" font-size="14" lengthAdjust="spacing" textLength="82" x="187.5" y="301.9951">Point Cloud</text></g><!--entity file--><g id="elem_file"><polygon fill="#F1F1F1" points="57,408,67,398,122,398,122,434.2969,112,444.2969,57,444.2969,57,408" style="stroke:#181818;stroke-width:0.5;"/><line style="stroke:#181818;stroke-width:0.5;" x1="112" x2="122" y1="408" y2="398"/><line style="stroke:#181818;stroke-width:0.5;" x1="57" x2="112" y1="408" y2="408"/><line style="stroke:#181818;stroke-width:0.5;" x1="112" x2="112" y1="408" y2="444.2969"/><text fill="#000000" font-family="sans-serif" font-size="14" lengthAdjust="spacing" textLength="25" x="72" y="430.9951">File</text></g><!--entity window--><g id="elem_window"><polygon fill="#F1F1F1" points="203.5,408,213.5,398,299.5,398,299.5,434.2969,289.5,444.2969,203.5,444.2969,203.5,408" style="stroke:#181818;stroke-width:0.5;"/><line style="stroke:#181818;stroke-width:0.5;" x1="289.5" x2="299.5" y1="408" y2="398"/><line style="stroke:#181818;stroke-width:0.5;" x1="203.5" x2="289.5" y1="408" y2="408"/><line style="stroke:#181818;stroke-width:0.5;" x1="289.5" x2="289.5" y1="408" y2="444.2969"/><text fill="#000000" font-family="sans-serif" font-size="14" lengthAdjust="spacing" textLength="56" x="218.5" y="430.9951">Window</text></g><!--entity OpenCV2,NumPy--><g id="elem_OpenCV2,NumPy"><ellipse cx="402.5" cy="421" fill="#F1F1F1" rx="8" ry="8" style="stroke:#181818;stroke-width:0.5;"/><text fill="#000000" font-family="sans-serif" font-size="14" lengthAdjust="spacing" textLength="120" x="342.5" y="450.9951">OpenCV2,NumPy</text></g><!--entity taichi--><g id="elem_taichi"><ellipse cx="251.5" cy="556" fill="#F1F1F1" rx="8" ry="8" style="stroke:#181818;stroke-width:0.5;"/><text fill="#000000" font-family="sans-serif" font-size="14" lengthAdjust="spacing" textLength="40" x="231.5" y="585.9951">taichi</text></g><!--entity plyfile--><g id="elem_plyfile"><ellipse cx="89.5" cy="556" fill="#F1F1F1" rx="8" ry="8" style="stroke:#181818;stroke-width:0.5;"/><text fill="#000000" font-family="sans-serif" font-size="14" lengthAdjust="spacing" textLength="45" x="67" y="585.9951">plyfile</text></g><!--link entry_point to tiff_sequential--><g id="link_entry_point_tiff_sequential"><path d="M166.984,42.397 C145.396,50.049 123.279,62.337 110.5,82 C102.5992,94.157 103.0382,109.671 106.2306,123.62 " fill="none" id="entry_point-to-tiff_sequential" style="stroke:#181818;stroke-width:1.0;"/><polygon fill="#181818" points="107.5209,128.679,109.1726,118.9696,106.2852,123.8341,101.4207,120.9467,107.5209,128.679" style="stroke:#181818;stroke-width:1.0;"/><text fill="#000000" font-family="sans-serif" font-size="13" lengthAdjust="spacing" textLength="178" x="111.5" y="95.0669">Process Multiple Tiff Images</text></g><!--link entry_point to tiff_stacked--><g id="link_entry_point_tiff_stacked"><path d="M265.208,52.197 C276.967,60.448 289.261,70.608 298.5,82 C308.526,94.362 316.315,110.057 321.973,124.086 " fill="none" id="entry_point-to-tiff_stacked" style="stroke:#181818;stroke-width:1.0;"/><polygon fill="#181818" points="323.81,128.772,324.2472,118.9329,321.9841,124.1173,316.7997,121.8542,323.81,128.772" style="stroke:#181818;stroke-width:1.0;"/><text fill="#000000" font-family="sans-serif" font-size="13" lengthAdjust="spacing" textLength="155" x="310.5" y="95.0669">Process Stacked Tiff File</text></g><!--link tiff_sequential to point_cloud--><g id="link_tiff_sequential_point_cloud"><path d="M125.581,192.267 C129.333,207.579 135.731,225.625 146.5,239 C155.149,249.742 166.657,258.781 178.462,266.152 " fill="none" id="tiff_sequential-to-point_cloud" style="stroke:#181818;stroke-width:1.0;"/><polygon fill="#181818" points="182.82,268.792,177.1946,260.7078,178.5434,266.2015,173.0497,267.5503,182.82,268.792" style="stroke:#181818;stroke-width:1.0;"/><text fill="#000000" font-family="sans-serif" font-size="13" lengthAdjust="spacing" textLength="119" x="147.5" y="235.0669">Create Point Cloud</text></g><!--link tiff_stacked to point_cloud--><g id="link_tiff_stacked_point_cloud"><path d="M310.894,192.248 C300.273,206.555 287.364,223.743 275.5,239 C268.888,247.502 261.55,256.675 254.881,264.914 " fill="none" id="tiff_stacked-to-point_cloud" style="stroke:#181818;stroke-width:1.0;"/><polygon fill="#181818" points="251.668,268.876,260.4435,264.4048,254.8172,264.9924,254.2297,259.3661,251.668,268.876" style="stroke:#181818;stroke-width:1.0;"/><text fill="#000000" font-family="sans-serif" font-size="13" lengthAdjust="spacing" textLength="119" x="289.5" y="235.0669">Create Point Cloud</text></g><!--link point_cloud to file--><g id="link_point_cloud_file"><path d="M172.442,301.202 C121.862,309.396 55.7379,323.836 39.5,345 C27.3811,360.795 39.655,379.413 55.0707,394.148 " fill="none" id="point_cloud-to-file" style="stroke:#181818;stroke-width:1.0;"/><polygon fill="#181818" points="59.0446,397.806,55.1323,388.7675,55.366,394.4196,49.714,394.6533,59.0446,397.806" style="stroke:#181818;stroke-width:1.0;"/><text fill="#000000" font-family="sans-serif" font-size="13" lengthAdjust="spacing" textLength="74" x="40.5" y="358.0669">Save as file</text></g><!--link file to point_cloud--><g id="link_file_point_cloud"><path d="M104.9766,397.73 C116.639,381.905 133.632,360.753 151.5,345 C162.649,335.171 175.846,325.943 188.356,318.07 " fill="none" id="file-to-point_cloud" style="stroke:#181818;stroke-width:1.0;"/><polygon fill="#181818" points="192.93,315.232,183.1738,316.5799,188.6818,317.8689,187.3928,323.3769,192.93,315.232" style="stroke:#181818;stroke-width:1.0;"/><text fill="#000000" font-family="sans-serif" font-size="13" lengthAdjust="spacing" textLength="109" x="152.5" y="358.0669">&#171;Read&#187; Read file</text></g><!--link point_cloud to window--><g id="link_point_cloud_window"><path d="M253.826,315.126 C260.488,323.793 267.061,334.235 270.5,345 C275.531,360.749 271.332,378.692 265.615,393.078 " fill="none" id="point_cloud-to-window" style="stroke:#181818;stroke-width:1.0;"/><polygon fill="#181818" points="263.63,397.812,270.7999,391.0598,265.564,393.2012,263.4226,387.9653,263.63,397.812" style="stroke:#181818;stroke-width:1.0;"/><text fill="#000000" font-family="sans-serif" font-size="13" lengthAdjust="spacing" textLength="46" x="274.5" y="358.0669">Render</text></g><!--link point_cloud to OpenCV2,NumPy--><g id="link_point_cloud_OpenCV2,NumPy"><path d="M281.137,315.166 C297.146,323.546 314.686,333.793 329.5,345 C357.032,365.829 383.908,397.053 395.936,411.769 " fill="none" id="point_cloud-OpenCV2,NumPy" style="stroke:#181818;stroke-width:1.0;stroke-dasharray:7.0,7.0;"/></g><!--link window to taichi--><g id="link_window_taichi"><path d="M251.5,444.261 C251.5,472.075 251.5,518.7857 251.5,541.619 " fill="none" id="window-to-taichi" style="stroke:#181818;stroke-width:1.0;"/><polygon fill="#181818" points="251.5,546.8836,255.5,537.8836,251.5,541.8836,247.5,537.8836,251.5,546.8836" style="stroke:#181818;stroke-width:1.0;"/><text fill="#000000" font-family="sans-serif" font-size="13" lengthAdjust="spacing" textLength="37" x="252.5" y="493.0669">Taichi</text></g><!--link file to plyfile--><g id="link_file_plyfile"><path d="M89.5,444.261 C89.5,472.075 89.5,518.7857 89.5,541.619 " fill="none" id="file-to-plyfile" style="stroke:#181818;stroke-width:1.0;"/><polygon fill="#181818" points="89.5,546.8836,93.5,537.8836,89.5,541.8836,85.5,537.8836,89.5,546.8836" style="stroke:#181818;stroke-width:1.0;"/><text fill="#000000" font-family="sans-serif" font-size="13" lengthAdjust="spacing" textLength="38" x="90.5" y="493.0669">plyfile</text></g><!--SRC=[ZP1DIyGm48Rl-HL3Jmgk1uzbwQLQs8DQjaKlGWd9T0rcavgcBlttDX-iiIBiAJEJzvbvPvJc2Dc3icQ6MWjbCw0ZeCkxmUL4UKMxgohO7Ua1npTrrU3dX8eX20NtmY2psipN7hMYxxlH_rj1PSGRIza7Sd1j72_KGI9KGc9A1L54l1iefPwubtWt7NDvL3ZSV_LB46klGd5zyjMJ3mb9be7DfbWxpA4sck4umkCahHWMN-sYYCl-GmUdF-XvFqSwNuIindWusI67qY2r2CcU96r-4K0IWGVSAN9ew1UU3xEMXBlai4V5qH3YH7-7RRTxfBmem3sXqUzEjv0z3wZAbxkRf-bOpnaXeNCu4nNiNUJG-ZUP8UTWCGRV]--></g></svg>